<?xml version="1.0" encoding="utf-8"?><svg width="16" height="31" viewBox="0 0 16 31" xmlns="http://www.w3.org/2000/svg" xmlns:xlink="http://www.w3.org/1999/xlink"><svg width="16" height="14" fill="none" viewBox="0 0 16 14" id="tlg-trnsp-xs" xmlns="http://www.w3.org/2000/svg"><path d="M1.415 5.997 14.24.455a.833.833 0 0 1 1.154.895l-1.754 11.064a.833.833 0 0 1-1.429.441L9.333 9.807a1.667 1.667 0 0 1-.104-2.167l2.031-2.614c.117-.15-.067-.346-.224-.241l-4.04 2.71a3.333 3.333 0 0 1-2.334.53l-3.035-.438c-.832-.12-.983-1.257-.212-1.59Z" fill="#fff"/></svg><svg width="16" height="17" fill="none" viewBox="0 0 16 17" id="user" y="14" xmlns="http://www.w3.org/2000/svg"><path d="M8 .5c2.21 0 4 1.79 4 4s-1.79 4-4 4-4-1.79-4-4 1.79-4 4-4Zm0 16s8 0 8-2c0-2.4-3.9-5-8-5s-8 2.6-8 5c0 2 8 2 8 2Z" fill="#D9DCE3"/></svg></svg>